<mxfile host="app.diagrams.net" agent="Mozilla/5.0 (Windows NT 10.0; Win64; x64) AppleWebKit/537.36 (KHTML, like Gecko) Chrome/130.0.0.0 Safari/537.36" version="24.8.3">
  <diagram name="第 1 页" id="Jvg6srASRmB1QtyDAOz6">
    <mxGraphModel dx="1221" dy="732" grid="1" gridSize="10" guides="1" tooltips="1" connect="1" arrows="1" fold="1" page="1" pageScale="1" pageWidth="827" pageHeight="1169" math="0" shadow="0">
      <root>
        <mxCell id="0" />
        <mxCell id="1" parent="0" />
        <mxCell id="YTdGtlBiCx6uXzQuJrf8-12" style="rounded=1;orthogonalLoop=1;jettySize=auto;html=1;exitX=1;exitY=0.5;exitDx=0;exitDy=0;entryX=0;entryY=0.5;entryDx=0;entryDy=0;strokeColor=#007FFF;" edge="1" parent="1" source="YTdGtlBiCx6uXzQuJrf8-2" target="YTdGtlBiCx6uXzQuJrf8-8">
          <mxGeometry relative="1" as="geometry" />
        </mxCell>
        <mxCell id="YTdGtlBiCx6uXzQuJrf8-2" value="&lt;font style=&quot;font-size: 16px;&quot;&gt;&amp;nbsp;0: deer bear river&lt;/font&gt;" style="rounded=0;whiteSpace=wrap;html=1;strokeColor=#FF8000;strokeWidth=2;glass=0;shadow=0;align=left;" vertex="1" parent="1">
          <mxGeometry x="40" y="160" width="140" height="60" as="geometry" />
        </mxCell>
        <mxCell id="YTdGtlBiCx6uXzQuJrf8-14" style="edgeStyle=orthogonalEdgeStyle;rounded=1;orthogonalLoop=1;jettySize=auto;html=1;exitX=1;exitY=0.5;exitDx=0;exitDy=0;entryX=0;entryY=0.5;entryDx=0;entryDy=0;curved=0;strokeColor=#007FFF;" edge="1" parent="1" source="YTdGtlBiCx6uXzQuJrf8-4" target="YTdGtlBiCx6uXzQuJrf8-9">
          <mxGeometry relative="1" as="geometry" />
        </mxCell>
        <mxCell id="YTdGtlBiCx6uXzQuJrf8-4" value="&lt;font style=&quot;font-size: 16px;&quot;&gt;&amp;nbsp;1: car car river&lt;/font&gt;" style="rounded=0;whiteSpace=wrap;html=1;strokeColor=#FF8000;strokeWidth=2;glass=0;shadow=0;align=left;" vertex="1" parent="1">
          <mxGeometry x="40" y="220" width="140" height="60" as="geometry" />
        </mxCell>
        <mxCell id="YTdGtlBiCx6uXzQuJrf8-15" style="rounded=1;orthogonalLoop=1;jettySize=auto;html=1;exitX=1;exitY=0.5;exitDx=0;exitDy=0;entryX=0;entryY=0.5;entryDx=0;entryDy=0;curved=0;strokeColor=#007FFF;" edge="1" parent="1" source="YTdGtlBiCx6uXzQuJrf8-5" target="YTdGtlBiCx6uXzQuJrf8-10">
          <mxGeometry relative="1" as="geometry" />
        </mxCell>
        <mxCell id="YTdGtlBiCx6uXzQuJrf8-5" value="&lt;font style=&quot;font-size: 16px;&quot;&gt;&amp;nbsp;2: deer car bear&lt;/font&gt;" style="rounded=0;whiteSpace=wrap;html=1;strokeColor=#FF8000;strokeWidth=2;glass=0;shadow=0;align=left;" vertex="1" parent="1">
          <mxGeometry x="40" y="280" width="140" height="60" as="geometry" />
        </mxCell>
        <mxCell id="YTdGtlBiCx6uXzQuJrf8-6" value="&lt;b&gt;&lt;font style=&quot;font-size: 20px;&quot;&gt;Input&lt;/font&gt;&lt;/b&gt;" style="text;html=1;align=center;verticalAlign=middle;whiteSpace=wrap;rounded=0;" vertex="1" parent="1">
          <mxGeometry x="80" y="60" width="60" height="30" as="geometry" />
        </mxCell>
        <mxCell id="YTdGtlBiCx6uXzQuJrf8-7" value="&lt;b&gt;&lt;font style=&quot;font-size: 20px;&quot;&gt;Split&lt;/font&gt;&lt;/b&gt;" style="text;html=1;align=center;verticalAlign=middle;whiteSpace=wrap;rounded=0;" vertex="1" parent="1">
          <mxGeometry x="270" y="60" width="60" height="30" as="geometry" />
        </mxCell>
        <mxCell id="YTdGtlBiCx6uXzQuJrf8-8" value="&lt;font style=&quot;font-size: 16px;&quot;&gt;&amp;nbsp;0: deer bear river&lt;/font&gt;" style="rounded=0;whiteSpace=wrap;html=1;strokeColor=#FF8000;strokeWidth=2;glass=0;shadow=0;align=left;" vertex="1" parent="1">
          <mxGeometry x="230" y="130" width="140" height="60" as="geometry" />
        </mxCell>
        <mxCell id="YTdGtlBiCx6uXzQuJrf8-9" value="&lt;font style=&quot;font-size: 16px;&quot;&gt;&amp;nbsp;1: car car river&lt;/font&gt;" style="rounded=0;whiteSpace=wrap;html=1;strokeColor=#FF8000;strokeWidth=2;glass=0;shadow=0;align=left;" vertex="1" parent="1">
          <mxGeometry x="230" y="220" width="140" height="60" as="geometry" />
        </mxCell>
        <mxCell id="YTdGtlBiCx6uXzQuJrf8-10" value="&lt;font style=&quot;font-size: 16px;&quot;&gt;&amp;nbsp;2: deer car bear&lt;/font&gt;" style="rounded=0;whiteSpace=wrap;html=1;strokeColor=#FF8000;strokeWidth=2;glass=0;shadow=0;align=left;" vertex="1" parent="1">
          <mxGeometry x="230" y="310" width="140" height="60" as="geometry" />
        </mxCell>
        <mxCell id="YTdGtlBiCx6uXzQuJrf8-16" value="&lt;span style=&quot;font-size: 20px;&quot;&gt;&lt;b&gt;Map&lt;/b&gt;&lt;/span&gt;" style="text;html=1;align=center;verticalAlign=middle;whiteSpace=wrap;rounded=0;" vertex="1" parent="1">
          <mxGeometry x="436" y="60" width="60" height="30" as="geometry" />
        </mxCell>
        <mxCell id="YTdGtlBiCx6uXzQuJrf8-33" style="edgeStyle=none;shape=connector;rounded=1;orthogonalLoop=1;jettySize=auto;html=1;exitX=1;exitY=0.25;exitDx=0;exitDy=0;entryX=0;entryY=0.5;entryDx=0;entryDy=0;strokeColor=#007FFF;align=center;verticalAlign=middle;fontFamily=Helvetica;fontSize=11;fontColor=default;labelBackgroundColor=default;endArrow=classic;" edge="1" parent="1" source="YTdGtlBiCx6uXzQuJrf8-17" target="YTdGtlBiCx6uXzQuJrf8-30">
          <mxGeometry relative="1" as="geometry" />
        </mxCell>
        <mxCell id="YTdGtlBiCx6uXzQuJrf8-34" style="edgeStyle=none;shape=connector;rounded=1;orthogonalLoop=1;jettySize=auto;html=1;exitX=1;exitY=0.5;exitDx=0;exitDy=0;entryX=0;entryY=0.5;entryDx=0;entryDy=0;strokeColor=#007FFF;align=center;verticalAlign=middle;fontFamily=Helvetica;fontSize=11;fontColor=default;labelBackgroundColor=default;endArrow=classic;" edge="1" parent="1" source="YTdGtlBiCx6uXzQuJrf8-17" target="YTdGtlBiCx6uXzQuJrf8-28">
          <mxGeometry relative="1" as="geometry" />
        </mxCell>
        <mxCell id="YTdGtlBiCx6uXzQuJrf8-35" style="edgeStyle=none;shape=connector;rounded=1;orthogonalLoop=1;jettySize=auto;html=1;exitX=1;exitY=0.75;exitDx=0;exitDy=0;entryX=0;entryY=0.5;entryDx=0;entryDy=0;strokeColor=#007FFF;align=center;verticalAlign=middle;fontFamily=Helvetica;fontSize=11;fontColor=default;labelBackgroundColor=default;endArrow=classic;" edge="1" parent="1" source="YTdGtlBiCx6uXzQuJrf8-17" target="YTdGtlBiCx6uXzQuJrf8-31">
          <mxGeometry relative="1" as="geometry" />
        </mxCell>
        <mxCell id="YTdGtlBiCx6uXzQuJrf8-17" value="&lt;font style=&quot;font-size: 16px;&quot;&gt;&amp;nbsp;deer 1&lt;/font&gt;&lt;div&gt;&lt;font style=&quot;font-size: 16px;&quot;&gt;&amp;nbsp;bear 1&lt;/font&gt;&lt;/div&gt;&lt;div&gt;&lt;font style=&quot;font-size: 16px;&quot;&gt;&amp;nbsp;river 1&lt;/font&gt;&lt;/div&gt;" style="rounded=0;whiteSpace=wrap;html=1;strokeColor=#FF8000;strokeWidth=2;glass=0;shadow=0;align=left;" vertex="1" parent="1">
          <mxGeometry x="436" y="130" width="60" height="60" as="geometry" />
        </mxCell>
        <mxCell id="YTdGtlBiCx6uXzQuJrf8-36" style="edgeStyle=none;shape=connector;rounded=1;orthogonalLoop=1;jettySize=auto;html=1;exitX=1;exitY=0.25;exitDx=0;exitDy=0;entryX=0;entryY=0.5;entryDx=0;entryDy=0;strokeColor=#007FFF;align=center;verticalAlign=middle;fontFamily=Helvetica;fontSize=11;fontColor=default;labelBackgroundColor=default;endArrow=classic;" edge="1" parent="1" source="YTdGtlBiCx6uXzQuJrf8-20" target="YTdGtlBiCx6uXzQuJrf8-29">
          <mxGeometry relative="1" as="geometry" />
        </mxCell>
        <mxCell id="YTdGtlBiCx6uXzQuJrf8-37" style="edgeStyle=none;shape=connector;rounded=1;orthogonalLoop=1;jettySize=auto;html=1;exitX=1;exitY=0.5;exitDx=0;exitDy=0;entryX=0;entryY=0.5;entryDx=0;entryDy=0;strokeColor=#007FFF;align=center;verticalAlign=middle;fontFamily=Helvetica;fontSize=11;fontColor=default;labelBackgroundColor=default;endArrow=classic;" edge="1" parent="1" source="YTdGtlBiCx6uXzQuJrf8-20" target="YTdGtlBiCx6uXzQuJrf8-29">
          <mxGeometry relative="1" as="geometry" />
        </mxCell>
        <mxCell id="YTdGtlBiCx6uXzQuJrf8-38" style="edgeStyle=none;shape=connector;rounded=1;orthogonalLoop=1;jettySize=auto;html=1;exitX=1;exitY=0.75;exitDx=0;exitDy=0;entryX=0;entryY=0.5;entryDx=0;entryDy=0;strokeColor=#007FFF;align=center;verticalAlign=middle;fontFamily=Helvetica;fontSize=11;fontColor=default;labelBackgroundColor=default;endArrow=classic;" edge="1" parent="1" source="YTdGtlBiCx6uXzQuJrf8-20" target="YTdGtlBiCx6uXzQuJrf8-31">
          <mxGeometry relative="1" as="geometry" />
        </mxCell>
        <mxCell id="YTdGtlBiCx6uXzQuJrf8-20" value="&lt;font style=&quot;font-size: 16px;&quot;&gt;&amp;nbsp;car 1&lt;/font&gt;&lt;div&gt;&lt;font style=&quot;font-size: 16px;&quot;&gt;&amp;nbsp;car 1&lt;/font&gt;&lt;/div&gt;&lt;div&gt;&lt;font style=&quot;font-size: 16px;&quot;&gt;&amp;nbsp;river 1&lt;/font&gt;&lt;/div&gt;" style="rounded=0;whiteSpace=wrap;html=1;strokeColor=#FF8000;strokeWidth=2;glass=0;shadow=0;align=left;" vertex="1" parent="1">
          <mxGeometry x="436" y="220" width="60" height="60" as="geometry" />
        </mxCell>
        <mxCell id="YTdGtlBiCx6uXzQuJrf8-39" style="edgeStyle=none;shape=connector;rounded=1;orthogonalLoop=1;jettySize=auto;html=1;exitX=1;exitY=0.25;exitDx=0;exitDy=0;entryX=0;entryY=0.5;entryDx=0;entryDy=0;strokeColor=#007FFF;align=center;verticalAlign=middle;fontFamily=Helvetica;fontSize=11;fontColor=default;labelBackgroundColor=default;endArrow=classic;" edge="1" parent="1" source="YTdGtlBiCx6uXzQuJrf8-21" target="YTdGtlBiCx6uXzQuJrf8-30">
          <mxGeometry relative="1" as="geometry" />
        </mxCell>
        <mxCell id="YTdGtlBiCx6uXzQuJrf8-40" style="edgeStyle=none;shape=connector;rounded=1;orthogonalLoop=1;jettySize=auto;html=1;exitX=1;exitY=0.5;exitDx=0;exitDy=0;entryX=0;entryY=0.5;entryDx=0;entryDy=0;strokeColor=#007FFF;align=center;verticalAlign=middle;fontFamily=Helvetica;fontSize=11;fontColor=default;labelBackgroundColor=default;endArrow=classic;" edge="1" parent="1" source="YTdGtlBiCx6uXzQuJrf8-21" target="YTdGtlBiCx6uXzQuJrf8-29">
          <mxGeometry relative="1" as="geometry" />
        </mxCell>
        <mxCell id="YTdGtlBiCx6uXzQuJrf8-41" style="edgeStyle=none;shape=connector;rounded=1;orthogonalLoop=1;jettySize=auto;html=1;exitX=1;exitY=0.75;exitDx=0;exitDy=0;entryX=0;entryY=0.5;entryDx=0;entryDy=0;strokeColor=#007FFF;align=center;verticalAlign=middle;fontFamily=Helvetica;fontSize=11;fontColor=default;labelBackgroundColor=default;endArrow=classic;" edge="1" parent="1" source="YTdGtlBiCx6uXzQuJrf8-21" target="YTdGtlBiCx6uXzQuJrf8-28">
          <mxGeometry relative="1" as="geometry" />
        </mxCell>
        <mxCell id="YTdGtlBiCx6uXzQuJrf8-21" value="&lt;font style=&quot;font-size: 16px;&quot;&gt;&amp;nbsp;deer 1&lt;/font&gt;&lt;div&gt;&lt;font style=&quot;font-size: 16px;&quot;&gt;&amp;nbsp;car 1&lt;/font&gt;&lt;/div&gt;&lt;div&gt;&lt;font style=&quot;font-size: 16px;&quot;&gt;&amp;nbsp;bear 1&lt;/font&gt;&lt;/div&gt;" style="rounded=0;whiteSpace=wrap;html=1;strokeColor=#FF8000;strokeWidth=2;glass=0;shadow=0;align=left;" vertex="1" parent="1">
          <mxGeometry x="436" y="310" width="60" height="60" as="geometry" />
        </mxCell>
        <mxCell id="YTdGtlBiCx6uXzQuJrf8-24" value="" style="endArrow=classic;html=1;rounded=0;strokeColor=#007FFF;align=center;verticalAlign=middle;fontFamily=Helvetica;fontSize=11;fontColor=default;labelBackgroundColor=default;shape=flexArrow;fillColor=#007FFF;exitX=1;exitY=0.5;exitDx=0;exitDy=0;entryX=0;entryY=0.5;entryDx=0;entryDy=0;" edge="1" parent="1" source="YTdGtlBiCx6uXzQuJrf8-8" target="YTdGtlBiCx6uXzQuJrf8-17">
          <mxGeometry width="50" height="50" relative="1" as="geometry">
            <mxPoint x="400" y="104.5" as="sourcePoint" />
            <mxPoint x="480" y="104.5" as="targetPoint" />
          </mxGeometry>
        </mxCell>
        <mxCell id="YTdGtlBiCx6uXzQuJrf8-25" value="" style="endArrow=classic;html=1;rounded=0;strokeColor=#007FFF;align=center;verticalAlign=middle;fontFamily=Helvetica;fontSize=11;fontColor=default;labelBackgroundColor=default;shape=flexArrow;fillColor=#007FFF;exitX=1;exitY=0.5;exitDx=0;exitDy=0;entryX=0;entryY=0.5;entryDx=0;entryDy=0;" edge="1" parent="1" source="YTdGtlBiCx6uXzQuJrf8-9" target="YTdGtlBiCx6uXzQuJrf8-20">
          <mxGeometry width="50" height="50" relative="1" as="geometry">
            <mxPoint x="392" y="170" as="sourcePoint" />
            <mxPoint x="470" y="170" as="targetPoint" />
          </mxGeometry>
        </mxCell>
        <mxCell id="YTdGtlBiCx6uXzQuJrf8-26" value="" style="endArrow=classic;html=1;rounded=0;strokeColor=#007FFF;align=center;verticalAlign=middle;fontFamily=Helvetica;fontSize=11;fontColor=default;labelBackgroundColor=default;shape=flexArrow;fillColor=#007FFF;exitX=1;exitY=0.5;exitDx=0;exitDy=0;entryX=0;entryY=0.5;entryDx=0;entryDy=0;" edge="1" parent="1" source="YTdGtlBiCx6uXzQuJrf8-10" target="YTdGtlBiCx6uXzQuJrf8-21">
          <mxGeometry width="50" height="50" relative="1" as="geometry">
            <mxPoint x="402" y="180" as="sourcePoint" />
            <mxPoint x="480" y="180" as="targetPoint" />
          </mxGeometry>
        </mxCell>
        <mxCell id="YTdGtlBiCx6uXzQuJrf8-27" value="&lt;span style=&quot;font-size: 20px;&quot;&gt;&lt;b&gt;Shuffle&lt;/b&gt;&lt;/span&gt;" style="text;html=1;align=center;verticalAlign=middle;whiteSpace=wrap;rounded=0;" vertex="1" parent="1">
          <mxGeometry x="570" y="60" width="60" height="30" as="geometry" />
        </mxCell>
        <mxCell id="YTdGtlBiCx6uXzQuJrf8-28" value="&lt;font style=&quot;font-size: 16px;&quot;&gt;&amp;nbsp;bear 1&lt;/font&gt;&lt;div&gt;&lt;font style=&quot;font-size: 16px;&quot;&gt;&amp;nbsp;bear 1&lt;/font&gt;&lt;/div&gt;" style="rounded=0;whiteSpace=wrap;html=1;strokeColor=#FF8000;strokeWidth=2;glass=0;shadow=0;align=left;" vertex="1" parent="1">
          <mxGeometry x="570" y="100" width="60" height="60" as="geometry" />
        </mxCell>
        <mxCell id="YTdGtlBiCx6uXzQuJrf8-29" value="&lt;font style=&quot;font-size: 16px;&quot;&gt;&amp;nbsp;car 1&lt;/font&gt;&lt;div&gt;&lt;font style=&quot;font-size: 16px;&quot;&gt;&amp;nbsp;car 1&lt;/font&gt;&lt;/div&gt;&lt;div&gt;&lt;font style=&quot;font-size: 16px;&quot;&gt;&amp;nbsp;car 1&lt;/font&gt;&lt;/div&gt;" style="rounded=0;whiteSpace=wrap;html=1;strokeColor=#FF8000;strokeWidth=2;glass=0;shadow=0;align=left;" vertex="1" parent="1">
          <mxGeometry x="570" y="180" width="60" height="60" as="geometry" />
        </mxCell>
        <mxCell id="YTdGtlBiCx6uXzQuJrf8-30" value="&lt;font style=&quot;font-size: 16px;&quot;&gt;&amp;nbsp;deer 1&lt;/font&gt;&lt;div&gt;&lt;font style=&quot;font-size: 16px;&quot;&gt;&amp;nbsp;deer 1&lt;/font&gt;&lt;/div&gt;" style="rounded=0;whiteSpace=wrap;html=1;strokeColor=#FF8000;strokeWidth=2;glass=0;shadow=0;align=left;" vertex="1" parent="1">
          <mxGeometry x="570" y="260" width="60" height="60" as="geometry" />
        </mxCell>
        <mxCell id="YTdGtlBiCx6uXzQuJrf8-31" value="&lt;font style=&quot;font-size: 16px;&quot;&gt;&amp;nbsp;river 1&lt;/font&gt;&lt;div&gt;&lt;font style=&quot;font-size: 16px;&quot;&gt;&amp;nbsp;river 1&lt;/font&gt;&lt;/div&gt;" style="rounded=0;whiteSpace=wrap;html=1;strokeColor=#FF8000;strokeWidth=2;glass=0;shadow=0;align=left;" vertex="1" parent="1">
          <mxGeometry x="570" y="340" width="60" height="60" as="geometry" />
        </mxCell>
        <mxCell id="YTdGtlBiCx6uXzQuJrf8-49" value="&lt;span style=&quot;font-size: 20px;&quot;&gt;&lt;b&gt;Reduce&lt;/b&gt;&lt;/span&gt;" style="text;html=1;align=center;verticalAlign=middle;whiteSpace=wrap;rounded=0;" vertex="1" parent="1">
          <mxGeometry x="680" y="60" width="60" height="30" as="geometry" />
        </mxCell>
        <mxCell id="YTdGtlBiCx6uXzQuJrf8-50" value="&lt;font style=&quot;font-size: 16px;&quot;&gt;&amp;nbsp;bear 2&lt;/font&gt;" style="rounded=0;whiteSpace=wrap;html=1;strokeColor=#FF8000;strokeWidth=2;glass=0;shadow=0;align=left;" vertex="1" parent="1">
          <mxGeometry x="680" y="115" width="60" height="30" as="geometry" />
        </mxCell>
        <mxCell id="YTdGtlBiCx6uXzQuJrf8-51" value="&lt;span style=&quot;font-size: 16px;&quot;&gt;&amp;nbsp;car 3&lt;/span&gt;" style="rounded=0;whiteSpace=wrap;html=1;strokeColor=#FF8000;strokeWidth=2;glass=0;shadow=0;align=left;" vertex="1" parent="1">
          <mxGeometry x="680" y="195" width="60" height="30" as="geometry" />
        </mxCell>
        <mxCell id="YTdGtlBiCx6uXzQuJrf8-52" value="&lt;span style=&quot;font-size: 16px;&quot;&gt;&amp;nbsp;deer 2&lt;/span&gt;" style="rounded=0;whiteSpace=wrap;html=1;strokeColor=#FF8000;strokeWidth=2;glass=0;shadow=0;align=left;" vertex="1" parent="1">
          <mxGeometry x="680" y="275" width="60" height="30" as="geometry" />
        </mxCell>
        <mxCell id="YTdGtlBiCx6uXzQuJrf8-63" style="edgeStyle=none;shape=connector;rounded=1;orthogonalLoop=1;jettySize=auto;html=1;exitX=1;exitY=0.5;exitDx=0;exitDy=0;entryX=0;entryY=0.75;entryDx=0;entryDy=0;strokeColor=#007FFF;align=center;verticalAlign=middle;fontFamily=Helvetica;fontSize=11;fontColor=default;labelBackgroundColor=default;endArrow=classic;" edge="1" parent="1" source="YTdGtlBiCx6uXzQuJrf8-53" target="YTdGtlBiCx6uXzQuJrf8-59">
          <mxGeometry relative="1" as="geometry" />
        </mxCell>
        <mxCell id="YTdGtlBiCx6uXzQuJrf8-53" value="&lt;span style=&quot;font-size: 16px;&quot;&gt;&amp;nbsp;river 2&lt;/span&gt;" style="rounded=0;whiteSpace=wrap;html=1;strokeColor=#FF8000;strokeWidth=2;glass=0;shadow=0;align=left;" vertex="1" parent="1">
          <mxGeometry x="680" y="355" width="60" height="30" as="geometry" />
        </mxCell>
        <mxCell id="YTdGtlBiCx6uXzQuJrf8-54" value="" style="endArrow=classic;html=1;rounded=0;strokeColor=#007FFF;align=center;verticalAlign=middle;fontFamily=Helvetica;fontSize=11;fontColor=default;labelBackgroundColor=default;shape=flexArrow;fillColor=#007FFF;exitX=1;exitY=0.5;exitDx=0;exitDy=0;entryX=0;entryY=0.5;entryDx=0;entryDy=0;" edge="1" parent="1" source="YTdGtlBiCx6uXzQuJrf8-28" target="YTdGtlBiCx6uXzQuJrf8-50">
          <mxGeometry width="50" height="50" relative="1" as="geometry">
            <mxPoint x="640" y="100" as="sourcePoint" />
            <mxPoint x="706" y="100" as="targetPoint" />
          </mxGeometry>
        </mxCell>
        <mxCell id="YTdGtlBiCx6uXzQuJrf8-55" value="" style="endArrow=classic;html=1;rounded=0;strokeColor=#007FFF;align=center;verticalAlign=middle;fontFamily=Helvetica;fontSize=11;fontColor=default;labelBackgroundColor=default;shape=flexArrow;fillColor=#007FFF;exitX=1;exitY=0.5;exitDx=0;exitDy=0;entryX=0;entryY=0.5;entryDx=0;entryDy=0;" edge="1" parent="1" source="YTdGtlBiCx6uXzQuJrf8-29" target="YTdGtlBiCx6uXzQuJrf8-51">
          <mxGeometry width="50" height="50" relative="1" as="geometry">
            <mxPoint x="630" y="190" as="sourcePoint" />
            <mxPoint x="680" y="190" as="targetPoint" />
          </mxGeometry>
        </mxCell>
        <mxCell id="YTdGtlBiCx6uXzQuJrf8-56" value="" style="endArrow=classic;html=1;rounded=0;strokeColor=#007FFF;align=center;verticalAlign=middle;fontFamily=Helvetica;fontSize=11;fontColor=default;labelBackgroundColor=default;shape=flexArrow;fillColor=#007FFF;exitX=1;exitY=0.5;exitDx=0;exitDy=0;entryX=0;entryY=0.5;entryDx=0;entryDy=0;" edge="1" parent="1" source="YTdGtlBiCx6uXzQuJrf8-30" target="YTdGtlBiCx6uXzQuJrf8-52">
          <mxGeometry width="50" height="50" relative="1" as="geometry">
            <mxPoint x="630" y="289.5" as="sourcePoint" />
            <mxPoint x="680" y="289.5" as="targetPoint" />
          </mxGeometry>
        </mxCell>
        <mxCell id="YTdGtlBiCx6uXzQuJrf8-57" value="" style="endArrow=classic;html=1;rounded=0;strokeColor=#007FFF;align=center;verticalAlign=middle;fontFamily=Helvetica;fontSize=11;fontColor=default;labelBackgroundColor=default;shape=flexArrow;fillColor=#007FFF;exitX=1;exitY=0.5;exitDx=0;exitDy=0;entryX=0;entryY=0.5;entryDx=0;entryDy=0;" edge="1" parent="1" source="YTdGtlBiCx6uXzQuJrf8-31" target="YTdGtlBiCx6uXzQuJrf8-53">
          <mxGeometry width="50" height="50" relative="1" as="geometry">
            <mxPoint x="630" y="350" as="sourcePoint" />
            <mxPoint x="680" y="350" as="targetPoint" />
          </mxGeometry>
        </mxCell>
        <mxCell id="YTdGtlBiCx6uXzQuJrf8-58" value="&lt;span style=&quot;font-size: 20px;&quot;&gt;&lt;b&gt;Final&lt;/b&gt;&lt;/span&gt;" style="text;html=1;align=center;verticalAlign=middle;whiteSpace=wrap;rounded=0;" vertex="1" parent="1">
          <mxGeometry x="790" y="60" width="60" height="30" as="geometry" />
        </mxCell>
        <mxCell id="YTdGtlBiCx6uXzQuJrf8-59" value="&lt;span style=&quot;font-size: 16px;&quot;&gt;&amp;nbsp;bear 2&lt;/span&gt;&lt;div&gt;&lt;span style=&quot;font-size: 16px;&quot;&gt;&amp;nbsp;car 2&lt;/span&gt;&lt;/div&gt;&lt;div&gt;&lt;span style=&quot;font-size: 16px;&quot;&gt;&amp;nbsp;deer&amp;nbsp;&lt;/span&gt;&lt;/div&gt;&lt;div&gt;&lt;span style=&quot;font-size: 16px;&quot;&gt;&amp;nbsp;river 2&lt;/span&gt;&lt;/div&gt;" style="rounded=0;whiteSpace=wrap;html=1;strokeColor=#FF8000;strokeWidth=2;glass=0;shadow=0;align=left;" vertex="1" parent="1">
          <mxGeometry x="780" y="205" width="80" height="100" as="geometry" />
        </mxCell>
        <mxCell id="YTdGtlBiCx6uXzQuJrf8-60" style="edgeStyle=none;shape=connector;rounded=1;orthogonalLoop=1;jettySize=auto;html=1;exitX=1;exitY=0.5;exitDx=0;exitDy=0;entryX=-0.037;entryY=0.183;entryDx=0;entryDy=0;entryPerimeter=0;strokeColor=#007FFF;align=center;verticalAlign=middle;fontFamily=Helvetica;fontSize=11;fontColor=default;labelBackgroundColor=default;endArrow=classic;" edge="1" parent="1" source="YTdGtlBiCx6uXzQuJrf8-50" target="YTdGtlBiCx6uXzQuJrf8-59">
          <mxGeometry relative="1" as="geometry" />
        </mxCell>
        <mxCell id="YTdGtlBiCx6uXzQuJrf8-61" style="edgeStyle=none;shape=connector;rounded=1;orthogonalLoop=1;jettySize=auto;html=1;exitX=1;exitY=0.5;exitDx=0;exitDy=0;entryX=-0.037;entryY=0.423;entryDx=0;entryDy=0;entryPerimeter=0;strokeColor=#007FFF;align=center;verticalAlign=middle;fontFamily=Helvetica;fontSize=11;fontColor=default;labelBackgroundColor=default;endArrow=classic;" edge="1" parent="1" source="YTdGtlBiCx6uXzQuJrf8-51" target="YTdGtlBiCx6uXzQuJrf8-59">
          <mxGeometry relative="1" as="geometry" />
        </mxCell>
        <mxCell id="YTdGtlBiCx6uXzQuJrf8-62" style="edgeStyle=none;shape=connector;rounded=1;orthogonalLoop=1;jettySize=auto;html=1;exitX=1;exitY=0.5;exitDx=0;exitDy=0;entryX=-0.029;entryY=0.597;entryDx=0;entryDy=0;entryPerimeter=0;strokeColor=#007FFF;align=center;verticalAlign=middle;fontFamily=Helvetica;fontSize=11;fontColor=default;labelBackgroundColor=default;endArrow=classic;" edge="1" parent="1" source="YTdGtlBiCx6uXzQuJrf8-52" target="YTdGtlBiCx6uXzQuJrf8-59">
          <mxGeometry relative="1" as="geometry" />
        </mxCell>
      </root>
    </mxGraphModel>
  </diagram>
</mxfile>
